<svg id="Layer_1" data-name="Layer 1" xmlns="http://www.w3.org/2000/svg" viewBox="0 0 405.4 61.4"><defs><style>.cls-1{fill:#cacaca;}.cls-2{fill:#ea0000;}.cls-3{fill:#7ec500;}.cls-4{fill:#00a2e8;}.cls-5{fill:#f4b940;}.cls-6{fill:#fff;}</style></defs><title>datastage_logo</title><path class="cls-1" d="M23,20.6c0,3.5-2.8,22.5-6.3,22.5s-6.3-19-6.3-22.5a6.3,6.3,0,0,1,12.6,0Z" transform="translate(-10.4 -14.3)"/><path class="cls-2" d="M38.4,20.6c0,3.5-2.8,22.5-6.3,22.5s-6.3-19-6.3-22.5a6.3,6.3,0,1,1,12.6,0Z" transform="translate(-10.4 -14.3)"/><path class="cls-3" d="M53.9,20.6c0,3.5-2.8,22.5-6.3,22.5s-6.3-19-6.3-22.5a6.3,6.3,0,1,1,12.6,0Z" transform="translate(-10.4 -14.3)"/><path class="cls-4" d="M69.3,20.6c0,3.5-2.8,22.5-6.3,22.5s-6.3-19-6.3-22.5a6.3,6.3,0,0,1,12.6,0Z" transform="translate(-10.4 -14.3)"/><circle class="cls-5" cx="6.3" cy="39.6" r="6.3"/><path class="cls-4" d="M54.6,53.9c0,3.5-19,6.3-22.5,6.3a6.3,6.3,0,0,1,0-12.6C35.6,47.6,54.6,50.4,54.6,53.9Z" transform="translate(-10.4 -14.3)"/><circle class="cls-1" cx="53.3" cy="39.6" r="6.3"/><circle class="cls-2" cx="6.3" cy="55.1" r="6.3"/><path class="cls-3" d="M54.6,69.4c0,3.5-19,6.3-22.5,6.3a6.3,6.3,0,0,1,0-12.6C35.6,63.1,54.6,65.9,54.6,69.4Z" transform="translate(-10.4 -14.3)"/><circle class="cls-5" cx="53.3" cy="55.1" r="6.3"/><circle class="cls-5" cx="68.8" cy="6.3" r="6.3"/><circle class="cls-2" cx="68.8" cy="21.8" r="6.3"/><path class="cls-4" d="M72.8,69.4c0-3.5,2.8-22.5,6.3-22.5s6.3,19,6.3,22.5a6.3,6.3,0,0,1-12.6,0Z" transform="translate(-10.4 -14.3)"/><path class="cls-6" d="M116.4,71.5V15.9h11.8c4.6,0,8,1.2,10.4,3.7s3.6,6,3.6,10.6v26c0,5.2-1.3,9-3.8,11.5s-6.2,3.7-10.9,3.7H116.4Zm7.9-48.1V64H128a6.21,6.21,0,0,0,4.8-1.7,8.4,8.4,0,0,0,1.4-5.3V30.3a8.37,8.37,0,0,0-1.3-5.1q-1.35-1.8-4.8-1.8Z" transform="translate(-10.4 -14.3)"/><path class="cls-6" d="M149.2,71.5,161.6,16h6.6l12.4,55.5h-8l-2.3-11.9H159.5l-2.3,11.9Zm19.6-19.4L164.9,32h-.2l-3.9,20.1Z" transform="translate(-10.4 -14.3)"/><path class="cls-6" d="M190.3,71.5V23.4h-9.2V15.9h26.4v7.5h-9.2V71.5Z" transform="translate(-10.4 -14.3)"/><path class="cls-6" d="M208.1,71.5,220.5,16h6.6l12.4,55.5h-8l-2.3-11.9H218.4L216,71.5Zm19.6-19.4L223.8,32h-.2l-3.9,20.1Z" transform="translate(-10.4 -14.3)"/><path class="cls-6" d="M288.3,31.9h-8V30.1a8.1,8.1,0,0,0-1.3-4.7,4.85,4.85,0,0,0-4.3-2,5.4,5.4,0,0,0-2.7.6,4.1,4.1,0,0,0-1.6,1.6,7.89,7.89,0,0,0-.9,2.3,12.29,12.29,0,0,0-.2,2.7,21,21,0,0,0,.1,2.7,6.64,6.64,0,0,0,.6,2,4,4,0,0,0,1.4,1.5,11.71,11.71,0,0,0,2.5,1.2l6.1,2.4a15.67,15.67,0,0,1,4.3,2.4,11.44,11.44,0,0,1,2.6,3.2,13.54,13.54,0,0,1,1.2,4.3,43.86,43.86,0,0,1,.3,5.4,27,27,0,0,1-.7,6.5,13.27,13.27,0,0,1-2.3,5.1,10.37,10.37,0,0,1-4.3,3.4,15.72,15.72,0,0,1-6.5,1.2,14,14,0,0,1-5.4-1,12.81,12.81,0,0,1-4.3-2.8,13.43,13.43,0,0,1-2.8-4.2,12.74,12.74,0,0,1-1.1-5.2v-3h8v2.5a5.93,5.93,0,0,0,1.3,3.9,5,5,0,0,0,4.3,1.8,7,7,0,0,0,3.2-.6,4.21,4.21,0,0,0,1.8-1.7,5.28,5.28,0,0,0,.7-2.6c.1-1,.1-2.1.1-3.4a32.08,32.08,0,0,0-.2-3.6,7,7,0,0,0-.6-2.3,4.67,4.67,0,0,0-1.4-1.4,13.32,13.32,0,0,0-2.4-1.2l-5.7-2.3c-3.4-1.4-5.7-3.3-6.9-5.6a18.71,18.71,0,0,1-1.8-8.7,18.71,18.71,0,0,1,.9-5.9,12.35,12.35,0,0,1,2.6-4.8,11.21,11.21,0,0,1,4.2-3.2,14,14,0,0,1,6-1.2,13.35,13.35,0,0,1,5.4,1.1,12.61,12.61,0,0,1,4.2,2.9,12.12,12.12,0,0,1,3.6,8.6v3.9Z" transform="translate(-10.4 -14.3)"/><path class="cls-6" d="M301.1,71.5V23.4h-9.2V15.9h26.4v7.5H309V71.5Z" transform="translate(-10.4 -14.3)"/><path class="cls-6" d="M317.2,71.5,329.6,16h6.6l12.4,55.5h-8l-2.3-11.9H327.5l-2.3,11.9Zm19.7-19.4L333,31.9h-.2L328.9,52h8Z" transform="translate(-10.4 -14.3)"/><path class="cls-6" d="M355.2,29a13.82,13.82,0,0,1,1.2-5.9,13.55,13.55,0,0,1,3.1-4.3,13.14,13.14,0,0,1,4.3-2.5,13.25,13.25,0,0,1,9.6,0,14.25,14.25,0,0,1,4.3,2.5,12.29,12.29,0,0,1,3,4.3,13.82,13.82,0,0,1,1.2,5.9v2.8h-8V29a5.44,5.44,0,0,0-1.6-4.3,5.86,5.86,0,0,0-7.6,0c-1.1.9-1.6,2.3-1.6,4.3V58.3a5.44,5.44,0,0,0,1.6,4.3,5.86,5.86,0,0,0,7.6,0c1.1-.9,1.6-2.3,1.6-4.3V47.9h-6.3v-7h14.3V58.4a14,14,0,0,1-1.2,6,12.82,12.82,0,0,1-3,4.1,14.54,14.54,0,0,1-4.3,2.6,13.25,13.25,0,0,1-9.6,0,13.47,13.47,0,0,1-7.4-6.7,14,14,0,0,1-1.2-6Z" transform="translate(-10.4 -14.3)"/><path class="cls-6" d="M392,71.5V15.9h23.7v7.5H400V39.7h13.7v7.5H400V63.5h15.8v8Z" transform="translate(-10.4 -14.3)"/></svg>
