<svg xmlns="http://www.w3.org/2000/svg" xmlns:xlink="http://www.w3.org/1999/xlink" version="1.1" id="Layer_1" x="0px" y="0px" width="104.78px" height="30px" viewBox="0 0 104.78 30" enable-background="new 0 0 104.78 30" xml:space="preserve"><g><g><g><path fill="#383F44" d="M50.44,15.69c0.8-0.18,1.2-0.76,1.2-1.75v-0.85c0-1.21-0.6-1.81-1.81-1.81h-3.97c-0.06,0-0.11,0.05-0.11,0.11v7.24c0,0.06,0.05,0.11,0.11,0.11h0.85c0.06,0,0.11-0.05,0.11-0.11v-2.76c0-0.06,0.05-0.11,0.11-0.11h2.16c0.04,0,0.08,0.02,0.1,0.06l1.32,2.85c0.02,0.04,0.06,0.06,0.1,0.06h0.94c0.08,0,0.13-0.08,0.1-0.15l-1.28-2.74C50.33,15.77,50.37,15.7,50.44,15.69z M46.92,14.68c-0.06,0-0.11-0.05-0.11-0.11v-2.13c0-0.06,0.05-0.11,0.11-0.11h2.85c0.28,0,0.49,0.06,0.61,0.19s0.19,0.33,0.19,0.61v0.74c0,0.28-0.06,0.49-0.19,0.61s-0.33,0.19-0.61,0.19H46.92z M35.78,11.27h-0.92c-0.04,0-0.08,0.03-0.1,0.07l-2.79,7.24c-0.03,0.07,0.02,0.14,0.1,0.14h0.84c0.04,0,0.08-0.03,0.1-0.07l0.61-1.58c0.02-0.04,0.06-0.07,0.1-0.07h3.22c0.04,0,0.08,0.03,0.1,0.07l0.61,1.58c0.02,0.04,0.06,0.07,0.1,0.07h0.84c0.07,0,0.13-0.07,0.1-0.14l-2.79-7.24C35.86,11.3,35.82,11.27,35.78,11.27z M36.43,15.95H34.2c-0.07,0-0.13-0.08-0.1-0.15l1.12-2.88c0.04-0.09,0.16-0.09,0.2,0l1.11,2.88C36.56,15.87,36.51,15.95,36.43,15.95z M42.35,11.27h-0.85c-0.06,0-0.11,0.05-0.11,0.11v7.24c0,0.06,0.05,0.11,0.11,0.11h0.85c0.06,0,0.11-0.05,0.11-0.11v-7.24C42.45,11.32,42.4,11.27,42.35,11.27z M30.11,11.27h-5.22c-0.06,0-0.11,0.05-0.11,0.11v7.24c0,0.06,0.05,0.11,0.11,0.11h0.85c0.06,0,0.11-0.05,0.11-0.11v-2.98c0-0.06,0.05-0.11,0.11-0.11h3.51c0.06,0,0.11-0.05,0.11-0.11v-0.85c0-0.06-0.05-0.11-0.11-0.11h-3.51c-0.06,0-0.11-0.05-0.11-0.11v-1.92c0-0.06,0.05-0.11,0.11-0.11h4.15c0.06,0,0.11-0.05,0.11-0.11v-0.85C30.21,11.32,30.16,11.27,30.11,11.27z M95.95,11.27h-5.22c-0.06,0-0.11,0.05-0.11,0.11v7.24c0,0.06,0.05,0.11,0.11,0.11h5.22c0.06,0,0.11-0.05,0.11-0.11v-0.85c0-0.06-0.05-0.11-0.11-0.11H91.8c-0.06,0-0.11-0.05-0.11-0.11v-1.91c0-0.06,0.05-0.11,0.11-0.11h3.51c0.06,0,0.11-0.05,0.11-0.11v-0.85c0-0.06-0.05-0.11-0.11-0.11H91.8c-0.06,0-0.11-0.05-0.11-0.11v-1.92c0-0.06,0.05-0.11,0.11-0.11h4.15c0.06,0,0.11-0.05,0.11-0.11v-0.85C96.06,11.32,96.01,11.27,95.95,11.27z M103.82,13.3h0.85c0.06,0,0.11-0.05,0.11-0.11v-0.85c0-0.15-0.03-0.28-0.08-0.41s-0.13-0.24-0.23-0.34c-0.1-0.1-0.21-0.17-0.34-0.23c-0.13-0.06-0.27-0.09-0.41-0.09h-3.62c-0.15,0-0.28,0.03-0.41,0.09c-0.13,0.06-0.24,0.13-0.34,0.23c-0.1,0.1-0.17,0.21-0.23,0.34s-0.08,0.27-0.08,0.41v2.13c0,0.15,0.03,0.28,0.08,0.41c0.06,0.13,0.13,0.24,0.23,0.34c0.1,0.1,0.21,0.17,0.34,0.23c0.13,0.06,0.27,0.09,0.41,0.09h3.51c0.06,0,0.11,0.05,0.11,0.11v1.91c0,0.06-0.05,0.11-0.11,0.11h-3.51c-0.06,0-0.11-0.05-0.11-0.11v-0.74c0-0.06-0.05-0.11-0.11-0.11h-0.85c-0.06,0-0.11,0.05-0.11,0.11v0.85c0,0.15,0.03,0.28,0.08,0.41c0.06,0.13,0.13,0.24,0.23,0.34c0.1,0.1,0.21,0.17,0.34,0.23c0.13,0.06,0.27,0.08,0.41,0.08h3.72c0.15,0,0.28-0.03,0.41-0.08c0.13-0.06,0.24-0.13,0.34-0.23c0.1-0.1,0.17-0.21,0.23-0.34c0.06-0.13,0.08-0.27,0.08-0.41v-2.13c0-0.15-0.03-0.28-0.08-0.41c-0.06-0.13-0.13-0.24-0.23-0.34s-0.21-0.17-0.34-0.23s-0.27-0.08-0.41-0.08h-3.51c-0.06,0-0.11-0.05-0.11-0.11v-1.92c0-0.06,0.05-0.11,0.11-0.11h3.4c0.06,0,0.11,0.05,0.11,0.11v0.75C103.72,13.25,103.76,13.3,103.82,13.3z M86.27,15.69c0.8-0.18,1.2-0.76,1.2-1.75v-0.85c0-1.21-0.6-1.81-1.81-1.81h-3.97c-0.06,0-0.11,0.05-0.11,0.11v7.24c0,0.06,0.05,0.11,0.11,0.11h0.85c0.06,0,0.11-0.05,0.11-0.11v-2.76c0-0.06,0.05-0.11,0.11-0.11h2.16c0.04,0,0.08,0.02,0.1,0.06l1.33,2.85c0.02,0.04,0.06,0.06,0.1,0.06h0.94c0.08,0,0.13-0.08,0.1-0.15l-1.28-2.74C86.16,15.77,86.2,15.7,86.27,15.69z M82.75,14.68c-0.06,0-0.11-0.05-0.11-0.11v-2.13c0-0.06,0.05-0.11,0.11-0.11h2.85c0.28,0,0.49,0.06,0.61,0.19c0.12,0.12,0.19,0.33,0.19,0.61v0.74c0,0.28-0.06,0.49-0.19,0.61c-0.12,0.12-0.33,0.19-0.61,0.19H82.75z M78.18,11.27h-0.85c-0.06,0-0.11,0.05-0.11,0.11v6.17c0,0.06-0.05,0.11-0.11,0.11h-4.04c-0.06,0-0.11-0.05-0.11-0.11v-6.17c0-0.06-0.05-0.11-0.11-0.11H72c-0.06,0-0.11,0.05-0.11,0.11v6.28c0,0.15,0.03,0.28,0.08,0.41c0.06,0.13,0.13,0.24,0.23,0.34c0.1,0.1,0.21,0.17,0.34,0.23c0.13,0.06,0.27,0.08,0.41,0.08h4.26c0.15,0,0.28-0.03,0.41-0.08c0.13-0.06,0.24-0.13,0.34-0.23c0.1-0.1,0.17-0.21,0.23-0.34c0.06-0.13,0.08-0.27,0.08-0.41v-6.28C78.28,11.32,78.24,11.27,78.18,11.27z M68.5,11.59c-0.1-0.1-0.21-0.17-0.34-0.23c-0.13-0.06-0.27-0.09-0.41-0.09H63.7c-0.15,0-0.28,0.03-0.41,0.09c-0.13,0.06-0.24,0.13-0.34,0.23c-0.1,0.1-0.17,0.21-0.23,0.34c-0.06,0.13-0.08,0.27-0.08,0.41v5.32c0,0.15,0.03,0.28,0.08,0.41c0.06,0.13,0.13,0.24,0.23,0.34c0.1,0.1,0.21,0.17,0.34,0.23c0.13,0.06,0.27,0.08,0.41,0.08h4.04c0.15,0,0.28-0.03,0.41-0.08c0.13-0.06,0.24-0.13,0.34-0.23c0.1-0.1,0.17-0.21,0.23-0.34c0.06-0.13,0.08-0.27,0.08-0.41v-0.85c0-0.06-0.05-0.11-0.11-0.11h-0.85c-0.06,0-0.11,0.05-0.11,0.11v0.74c0,0.06-0.05,0.11-0.11,0.11h-3.83c-0.06,0-0.11-0.05-0.11-0.11v-5.11c0-0.06,0.05-0.11,0.11-0.11h3.83c0.06,0,0.11,0.05,0.11,0.11v0.75c0,0.06,0.05,0.11,0.11,0.11h0.85c0.06,0,0.11-0.05,0.11-0.11v-0.85c0-0.15-0.03-0.28-0.08-0.41S68.6,11.68,68.5,11.59z M59.87,16.16h-0.79c-0.06,0-0.11-0.05-0.11-0.11v-4.67c0-0.06-0.05-0.11-0.11-0.11h-1.09c-0.03,0-0.06,0.02-0.09,0.04l-3.62,4.81c-0.01,0.02-0.02,0.04-0.02,0.06v0.88c0,0.06,0.05,0.11,0.11,0.11h3.65c0.06,0,0.11,0.05,0.11,0.11v1.33c0,0.06,0.05,0.11,0.11,0.11h0.85c0.06,0,0.11-0.05,0.11-0.11v-1.33c0-0.06,0.05-0.11,0.11-0.11h0.79c0.06,0,0.11-0.05,0.11-0.11v-0.81C59.98,16.21,59.93,16.16,59.87,16.16z M57.91,16.05c0,0.06-0.05,0.11-0.11,0.11h-2.38c-0.09,0-0.14-0.1-0.09-0.17l2.38-3.17c0.06-0.08,0.19-0.04,0.19,0.06V16.05z"/></g></g><g><path fill="#36D6D6" d="M0,19.93v9.12c0,0.95,1.24,1.31,1.75,0.51l8.51-13.4l-8.71,4.67C0.85,21.2,0,20.71,0,19.93z"/><path fill="#36D6D6" d="M19.2,9.59l-3.56-1.91l-5.39,8.48l8.95-4.79C19.92,10.98,19.92,9.97,19.2,9.59z"/><path fill="#2DB4B4" d="M1.55,0.13C0.85-0.25,0,0.24,0,1.02v18.92c0,0.77,0.85,1.26,1.55,0.89l8.71-4.67l5.39-8.48L1.55,0.13z"/><path fill="#36D6D6" d="M18.79,0H1.05l0,0c0.17,0,0.34,0.04,0.5,0.13l14.09,7.55l3.95-6.22C19.99,0.82,19.54,0,18.79,0z"/></g></g></svg>
