<?xml version="1.0" encoding="utf-8"?>
<!-- Generator: Adobe Illustrator 22.1.0, SVG Export Plug-In . SVG Version: 6.00 Build 0)  -->
<svg version="1.1" id="Layer_1" xmlns="http://www.w3.org/2000/svg" xmlns:xlink="http://www.w3.org/1999/xlink" x="0px" y="0px"
	 viewBox="0 0 378 40" style="enable-background:new 0 0 378 40;" xml:space="preserve">
<style type="text/css">
	.st0{fill:#991937;}
	.st1{fill:#9B9B9B;}
	.st2{fill:#DD6721;}
	.st3{fill:#BE1B35;}
	.st4{fill:#006473;}
	.st5{fill:#1B2949;}
	.st6{fill:#FFFFFF;}
</style>
<path id="Path_11_" class="st0" d="M41.6,2.6c1-1,2.1-1.3,2.3-1.4c0.5-0.1,1-0.2,1.6-0.2c1.5,0,2.9,0.6,3.9,1.6
	C50,3.3,50.5,4.1,50.7,5c0.2,0.7,0.2,1.2,0.2,1.4c0,6,0.1,9.1-1,12.5c-0.4,1.1-2.1,6.8-3.7,6.7c-1.2-0.1-0.6-3.7-3-9.7
	c-1.7-4.3-3.6-6.2-3.3-9.5C40.1,5.7,40.3,3.9,41.6,2.6z"/>
<title>Group 2</title>
<desc>Created with Sketch.</desc>
<g id="Page-1">
	<g id="Group-2">
		<path id="Path" class="st0" d="M11.9,6.5c0.3,3.4-1.5,5.3-3.3,9.5c-2.4,5.9-1.8,9.5-3,9.7C4.1,25.8,2.4,20.1,2,19
			c-1.1-3.5-1-6.5-1-12.5C1,6.2,1,5.7,1.2,5c0.3-0.9,0.7-1.8,1.4-2.4C3.6,1.6,5,1,6.5,1C7,1,7.5,1.1,8,1.2c0.1,0,1.3,0.4,2.3,1.4
			C11.6,3.9,11.8,5.7,11.9,6.5z"/>
		<path id="Oval" class="st1" d="M31.5,38.9c-3,0-5.5-2.4-5.5-5.5s2.4-5.5,5.5-5.5s5.5,2.4,5.5,5.5S34.5,38.9,31.5,38.9z"/>
		<circle id="Oval_1_" class="st2" cx="32.5" cy="6.5" r="5.5"/>
		<circle id="Oval_2_" class="st3" cx="32.5" cy="20.5" r="5.5"/>
		<circle id="Oval_3_" class="st4" cx="18.5" cy="6.5" r="5.5"/>
		<circle id="Oval_4_" class="st5" cx="18.5" cy="20.5" r="5.5"/>
		<path id="Oval_5_" class="st1" d="M5.5,38.9c-3,0-5.5-2.4-5.5-5.5S2.4,28,5.5,28s5.5,2.4,5.5,5.5S8.5,38.9,5.5,38.9z"/>
		<path id="Oval_6_" class="st1" d="M18.5,38.9c-3,0-5.5-2.4-5.5-5.5s2.4-5.5,5.5-5.5s5.5,2.4,5.5,5.5S21.5,38.9,18.5,38.9z"/>
		<path id="Oval_7_" class="st1" d="M45.5,38.9c-3,0-5.5-2.4-5.5-5.5s2.4-5.5,5.5-5.5c3,0,5.5,2.4,5.5,5.5S48.5,38.9,45.5,38.9z"/>
		<polygon id="Path_2_" class="st6" points="69,38.6 69,0 74.3,0 82.7,23.2 82.8,23.2 82.8,0 88.3,0 88.3,38.6 83.1,38.6 74.6,15.4 
			74.5,15.4 74.5,38.6 		"/>
		<polygon id="Path_3_" class="st6" points="94,38.6 94,0 99.5,0 99.5,16.5 106.3,16.5 106.3,0 111.9,0 111.9,38.6 106.3,38.6 
			106.3,21.4 99.5,21.4 99.5,38.6 		"/>
		<polygon id="Path_4_" class="st6" points="119,38.6 119,0 124.5,0 124.5,33 135.5,33 135.5,38.5 119,38.5 		"/>
		<path id="Shape" class="st6" d="M139,38.6V0h8.1c1.8,0,3.3,0.3,4.5,0.8c1.2,0.5,2.3,1.3,3.1,2.2c0.8,0.9,1.4,1.9,1.7,3.1
			c0.3,1.2,0.5,2.4,0.5,3.7v1.4c0,1.1-0.1,1.9-0.2,2.7c-0.2,0.7-0.4,1.3-0.7,1.9c-0.6,1-1.5,1.9-2.8,2.6c1.3,0.6,2.3,1.5,2.9,2.7
			c0.6,1.2,0.9,2.8,0.9,4.9v2.2c0,3.4-0.8,6-2.5,7.8c-1.6,1.8-4.3,2.7-7.9,2.7L139,38.6L139,38.6z M144.5,5.2v10.6h2.5
			c1.8,0,3.1-0.5,3.7-1.4c0.6-0.9,0.9-2.3,0.9-4c0-1.7-0.3-3-1.1-3.9c-0.7-0.9-2-1.3-3.8-1.3H144.5z M144.5,20.7V33h2.4
			c1.1,0,2-0.2,2.6-0.5c0.6-0.3,1.1-0.8,1.4-1.3c0.3-0.6,0.5-1.3,0.6-2.1c0.1-0.8,0.1-1.7,0.1-2.6c0-1-0.1-1.8-0.2-2.6
			c-0.1-0.7-0.3-1.3-0.6-1.8c-0.4-0.5-0.9-0.9-1.5-1.1c-0.6-0.2-1.4-0.4-2.4-0.4H144.5z"/>
		<polygon id="Path_5_" class="st6" points="163,38.6 163,0 168.5,0 168.5,38.6 		"/>
		<path id="Shape_1_" class="st6" d="M187,38.6V0h8.2c3.2,0,5.6,0.9,7.2,2.6s2.5,4.2,2.5,7.4v18c0,3.6-0.9,6.3-2.6,8
			s-4.3,2.6-7.6,2.6L187,38.6L187,38.6z M192.5,5.2v28.2h2.6c1.6,0,2.6-0.4,3.3-1.2c0.6-0.8,1-2,1-3.7V10c0-1.5-0.3-2.7-0.9-3.5
			c-0.6-0.8-1.7-1.2-3.4-1.2L192.5,5.2L192.5,5.2z"/>
		<path id="Shape_2_" class="st6" d="M220.4,38.8V36h-0.1c-0.7,1-1.4,1.8-2.2,2.3c-0.7,0.5-1.8,0.8-3.1,0.8c-0.7,0-1.3-0.1-2-0.3
			c-0.7-0.2-1.3-0.6-1.9-1.1c-0.6-0.5-1.1-1.2-1.5-2.2c-0.4-1-0.6-2.2-0.6-3.7c0-1.5,0.1-2.9,0.4-4.1c0.2-1.2,0.7-2.2,1.4-2.9
			c0.7-0.8,1.5-1.3,2.7-1.7c1.1-0.4,2.6-0.6,4.3-0.6c0.2,0,0.4,0,0.6,0c0.2,0,0.4,0,0.6,0c0.2,0,0.4,0.1,0.7,0.1s0.5,0,0.8,0v-2.9
			c0-0.9-0.2-1.7-0.6-2.3c-0.4-0.6-1.1-0.9-2.2-0.9c-0.7,0-1.4,0.2-2,0.7c-0.6,0.5-1,1.2-1.2,2.1h-5.4c0.1-2.5,1-4.4,2.5-6
			c0.7-0.7,1.6-1.3,2.6-1.7c1-0.4,2.2-0.6,3.4-0.6c1.1,0,2.2,0.2,3.2,0.5s1.9,0.9,2.6,1.6c0.7,0.7,1.3,1.6,1.7,2.7
			c0.4,1.1,0.6,2.3,0.6,3.8v19.1L220.4,38.8L220.4,38.8z M220.4,27c-0.6-0.1-1.1-0.2-1.5-0.2c-1.2,0-2.2,0.3-3.1,0.8
			c-0.8,0.6-1.3,1.6-1.3,3.1c0,1.1,0.2,1.9,0.8,2.6c0.5,0.6,1.2,1,2.1,1c0.9,0,1.7-0.3,2.2-0.9s0.8-1.5,0.8-2.6L220.4,27L220.4,27z"
			/>
		<path id="Path_6_" class="st6" d="M231.8,11.3V3h5.5v8.3h3.4v4.3h-3.4v15.2c0,0.7,0.1,1.2,0.2,1.5s0.3,0.6,0.6,0.8
			c0.3,0.2,0.6,0.3,1.1,0.3c0.4,0,0.9,0,1.5,0v5.2h-2.3c-1.3,0-2.3-0.2-3.2-0.6c-0.9-0.4-1.5-0.9-2-1.5c-0.5-0.6-0.9-1.3-1.1-2.1
			c-0.2-0.8-0.4-1.5-0.4-2.2V15.7H229v-4.3L231.8,11.3L231.8,11.3z"/>
		<path id="Shape_3_" class="st6" d="M255.9,38.8V36h-0.1c-0.7,1-1.4,1.8-2.2,2.3c-0.7,0.5-1.8,0.8-3.1,0.8c-0.7,0-1.3-0.1-2-0.3
			c-0.7-0.2-1.3-0.6-1.9-1.1c-0.6-0.5-1.1-1.2-1.5-2.2c-0.4-1-0.6-2.2-0.6-3.7c0-1.5,0.1-2.9,0.4-4.1c0.2-1.2,0.7-2.2,1.4-2.9
			c0.7-0.8,1.5-1.3,2.7-1.7c1.1-0.4,2.5-0.6,4.3-0.6c0.2,0,0.4,0,0.6,0c0.2,0,0.4,0,0.6,0c0.2,0,0.4,0.1,0.7,0.1s0.5,0,0.8,0v-2.9
			c0-0.9-0.2-1.7-0.6-2.3c-0.4-0.6-1.1-0.9-2.2-0.9c-0.7,0-1.4,0.2-2,0.7c-0.6,0.5-1,1.2-1.2,2.1h-5.4c0.1-2.5,1-4.4,2.5-6
			c0.7-0.7,1.6-1.3,2.6-1.7c1-0.4,2.2-0.6,3.4-0.6c1.1,0,2.2,0.2,3.2,0.5c1,0.4,1.9,0.9,2.7,1.6c0.7,0.7,1.3,1.6,1.7,2.7
			c0.4,1.1,0.7,2.3,0.7,3.8v19.1L255.9,38.8L255.9,38.8z M255.9,27c-0.6-0.1-1.1-0.2-1.5-0.2c-1.2,0-2.2,0.3-3.1,0.8
			c-0.8,0.6-1.3,1.6-1.3,3.1c0,1.1,0.2,1.9,0.8,2.6c0.5,0.6,1.2,1,2.1,1c0.9,0,1.7-0.3,2.2-0.9s0.8-1.5,0.8-2.6L255.9,27L255.9,27z"
			/>
		<path id="Path_7_" class="st6" d="M294,11.4h-5.5v-1.2c0-1.3-0.3-2.4-0.9-3.3c-0.6-0.9-1.6-1.4-3-1.4c-0.8,0-1.4,0.1-1.8,0.4
			s-0.9,0.7-1.1,1.1c-0.3,0.5-0.5,1-0.6,1.6c-0.1,0.6-0.2,1.2-0.2,1.9c0,0.8,0,1.4,0.1,1.9c0.1,0.5,0.2,1,0.4,1.4
			c0.2,0.4,0.5,0.7,1,1c0.4,0.3,1,0.6,1.7,0.9l4.2,1.7c1.2,0.5,2.2,1,3,1.6c0.8,0.6,1.3,1.4,1.8,2.2c0.4,0.9,0.7,1.9,0.8,2.9
			c0.1,1.1,0.2,2.4,0.2,3.8c0,1.6-0.2,3.1-0.5,4.5c-0.3,1.4-0.9,2.6-1.6,3.5c-0.8,1-1.8,1.8-3,2.4c-1.2,0.6-2.7,0.9-4.5,0.9
			c-1.3,0-2.6-0.2-3.7-0.7c-1.2-0.5-2.1-1.1-3-1.9c-0.8-0.8-1.5-1.8-2-2.9c-0.5-1.1-0.7-2.3-0.7-3.6V28h5.5v1.7c0,1,0.3,1.9,0.9,2.7
			c0.6,0.8,1.6,1.2,3,1.2c0.9,0,1.7-0.1,2.2-0.4c0.5-0.3,0.9-0.7,1.2-1.2c0.3-0.5,0.5-1.1,0.5-1.8c0.1-0.7,0.1-1.5,0.1-2.4
			c0-1,0-1.8-0.1-2.5c-0.1-0.7-0.2-1.2-0.4-1.6c-0.2-0.4-0.6-0.7-1-1c-0.4-0.2-1-0.5-1.6-0.8l-4-1.6c-2.4-1-4-2.3-4.8-3.9
			c-0.8-1.6-1.2-3.6-1.2-6c0-1.4,0.2-2.8,0.6-4.1s1-2.4,1.8-3.4c0.8-0.9,1.7-1.7,2.9-2.2c1.2-0.6,2.6-0.8,4.2-0.8
			c1.4,0,2.6,0.2,3.8,0.8c1.1,0.5,2.1,1.2,3,2c1.7,1.7,2.5,3.7,2.5,6L294,11.4L294,11.4z"/>
		<polygon id="Path_8_" class="st6" points="302.4,38.6 302.4,5.2 296,5.2 296,0 314.3,0 314.3,5.2 307.9,5.2 307.9,38.6 		"/>
		<path id="Shape_4_" class="st6" d="M313,38.6L321.6,0h4.6l8.6,38.6h-5.5l-1.6-8.3h-7.5l-1.6,8.3H313z M326.6,25.1l-2.7-14h-0.1
			l-2.7,14H326.6z"/>
		<path id="Path_9_" class="st6" d="M338,9.4c0-1.6,0.3-2.9,0.8-4.1c0.5-1.2,1.3-2.2,2.2-3c0.9-0.8,1.8-1.3,2.9-1.7
			c1.1-0.4,2.2-0.6,3.3-0.6s2.2,0.2,3.3,0.6s2.1,1,3,1.7c0.9,0.8,1.6,1.8,2.1,3c0.5,1.2,0.8,2.6,0.8,4.1v1.9H351V9.4
			c0-1.3-0.4-2.3-1.1-3c-0.7-0.6-1.6-0.9-2.6-0.9c-1,0-1.9,0.3-2.6,0.9s-1.1,1.6-1.1,3v20.4c0,1.3,0.4,2.3,1.1,3
			c0.7,0.6,1.6,0.9,2.6,0.9c1,0,1.9-0.3,2.6-0.9c0.7-0.6,1.1-1.6,1.1-3v-7.3h-4.4v-4.9h9.9v12.1c0,1.6-0.3,3-0.8,4.2
			c-0.5,1.2-1.2,2.1-2.1,2.9c-0.9,0.8-1.9,1.4-3,1.8c-1.1,0.4-2.2,0.6-3.3,0.6s-2.2-0.2-3.3-0.6c-1.1-0.4-2.1-1-2.9-1.8
			c-0.9-0.8-1.6-1.7-2.2-2.9c-0.5-1.1-0.8-2.5-0.8-4.2V9.4z"/>
		<polygon id="Path_10_" class="st6" points="361,38.6 361,0 377.5,0 377.5,5.2 366.5,5.2 366.5,16.5 376,16.5 376,21.7 366.5,21.7 
			366.5,33 377.5,33 377.5,38.6 		"/>
	</g>
</g>
</svg>
