<?xml version="1.0" encoding="UTF-8"?>
<svg width="376px" height="40px" viewBox="0 0 376 40" version="1.1" xmlns="http://www.w3.org/2000/svg" xmlns:xlink="http://www.w3.org/1999/xlink">
    <!-- Generator: Sketch 52.5 (67469) - http://www.bohemiancoding.com/sketch -->
    <title>Group 2</title>
    <desc>Created with Sketch.</desc>
    <g id="Page-1" stroke="none" stroke-width="1" fill="none" fill-rule="evenodd">
        <g id="Group-2">
            <path d="M10.92,6.46 C10.92,9.48 8.47,25.87 5.46,25.87 C2.45,25.87 -6.21724894e-15,9.47 -6.21724894e-15,6.46 C-6.21724894e-15,3.45 2.45,1 5.46,1 C8.47,1 10.92,3.44 10.92,6.46 Z" id="Path" fill="#BE1B35"></path>
            <path d="M31.96,39.92 C28.6683829,39.92 26,37.2516171 26,33.96 C26,30.6683829 28.6683829,28 31.96,28 C35.2516171,28 37.92,30.6683829 37.92,33.96 C37.92,37.2516171 35.2516171,39.92 31.96,39.92 Z M31.96,38.92 C34.6993323,38.92 36.92,36.6993324 36.92,33.96 C36.92,31.2206676 34.6993323,29 31.96,29 C29.2206676,29 27,31.2206676 27,33.96 C27,36.6993324 29.2206676,38.92 31.96,38.92 Z" id="Oval" fill="#9B9B9B" fill-rule="nonzero"></path>
            <circle id="Oval" fill="#DD6721" cx="32.46" cy="6.46" r="5.46"></circle>
            <circle id="Oval" fill="#143C66" cx="32.46" cy="20.46" r="5.46"></circle>
            <circle id="Oval" fill="#006473" cx="18.46" cy="6.46" r="5.46"></circle>
            <circle id="Oval" fill="#1B2949" cx="18.46" cy="20.46" r="5.46"></circle>
            <path d="M50.92,6.46 C50.92,9.48 48.47,25.87 45.46,25.87 C42.45,25.87 40,9.47 40,6.46 C40,3.44 42.45,1 45.46,1 C48.47,1 50.92,3.44 50.92,6.46 Z" id="Path" fill="#BE1B35"></path>
            <path d="M5.96,39.92 C2.66838289,39.92 -6.21724894e-15,37.2516171 -6.21724894e-15,33.96 C-6.21724894e-15,30.6683829 2.66838289,28 5.96,28 C9.25161711,28 11.92,30.6683829 11.92,33.96 C11.92,37.2516171 9.25161711,39.92 5.96,39.92 Z M5.96,38.92 C8.69933236,38.92 10.92,36.6993324 10.92,33.96 C10.92,31.2206676 8.69933236,29 5.96,29 C3.22066764,29 1,31.2206676 1,33.96 C1,36.6993324 3.22066764,38.92 5.96,38.92 Z" id="Oval" fill="#9B9B9B" fill-rule="nonzero"></path>
            <path d="M18.96,39.92 C15.6683829,39.92 13,37.2516171 13,33.96 C13,30.6683829 15.6683829,28 18.96,28 C22.2516171,28 24.92,30.6683829 24.92,33.96 C24.92,37.2516171 22.2516171,39.92 18.96,39.92 Z M18.96,38.92 C21.6993324,38.92 23.92,36.6993324 23.92,33.96 C23.92,31.2206676 21.6993324,29 18.96,29 C16.2206676,29 14,31.2206676 14,33.96 C14,36.6993324 16.2206676,38.92 18.96,38.92 Z" id="Oval" fill="#9B9B9B" fill-rule="nonzero"></path>
            <path d="M45.96,39.92 C42.6683829,39.92 40,37.2516171 40,33.96 C40,30.6683829 42.6683829,28 45.96,28 C49.2516171,28 51.92,30.6683829 51.92,33.96 C51.92,37.2516171 49.2516171,39.92 45.96,39.92 Z M45.96,38.92 C48.6993324,38.92 50.92,36.6993324 50.92,33.96 C50.92,31.2206676 48.6993324,29 45.96,29 C43.2206676,29 41,31.2206676 41,33.96 C41,36.6993324 43.2206676,38.92 45.96,38.92 Z" id="Oval" fill="#9B9B9B" fill-rule="nonzero"></path>
            <polygon id="Path" fill="#FFFFFF" points="69 38.56 69 0 74.31 0 82.65 23.23 82.76 23.23 82.76 0 88.28 0 88.28 38.56 83.08 38.56 74.63 15.38 74.52 15.38 74.52 38.56"></polygon>
            <polygon id="Path" fill="#FFFFFF" points="94 38.56 94 0 99.52 0 99.52 16.52 106.34 16.52 106.34 0 111.86 0 111.86 38.56 106.34 38.56 106.34 21.39 99.52 21.39 99.52 38.56"></polygon>
            <polygon id="Path" fill="#FFFFFF" points="119 38.56 119 0 124.52 0 124.52 33.03 135.46 33.03 135.46 38.55 119 38.55"></polygon>
            <path d="M139,38.56 L139,-3.55271368e-15 L147.07,-3.55271368e-15 C148.84,-3.55271368e-15 150.35,0.27 151.59,0.81 C152.84,1.35 153.85,2.07 154.65,2.98 C155.44,3.88 156.01,4.92 156.36,6.09 C156.7,7.26 156.87,8.48 156.87,9.75 L156.87,11.16 C156.87,12.21 156.79,13.09 156.63,13.81 C156.47,14.53 156.22,15.16 155.9,15.71 C155.29,16.72 154.35,17.59 153.08,18.31 C154.38,18.92 155.34,19.83 155.95,21.02 C156.56,22.21 156.87,23.84 156.87,25.89 L156.87,28.06 C156.87,31.45 156.05,34.05 154.41,35.86 C152.77,37.67 150.14,38.57 146.53,38.57 L139,38.57 L139,38.56 Z M144.53,5.2 L144.53,15.81 L147.02,15.81 C148.86,15.81 150.1,15.35 150.73,14.43 C151.36,13.51 151.68,12.16 151.68,10.4 C151.68,8.67 151.33,7.37 150.62,6.5 C149.92,5.63 148.64,5.2 146.8,5.2 L144.53,5.2 Z M144.53,20.69 L144.53,33.04 L146.91,33.04 C148.03,33.04 148.9,32.88 149.54,32.55 C150.17,32.23 150.65,31.77 150.98,31.2 C151.3,30.62 151.5,29.94 151.58,29.14 C151.65,28.35 151.69,27.48 151.69,26.54 C151.69,25.57 151.64,24.72 151.53,23.99 C151.42,23.27 151.2,22.65 150.88,22.15 C150.52,21.65 150.03,21.28 149.42,21.04 C148.81,20.81 147.99,20.69 146.98,20.69 L144.53,20.69 Z" id="Shape" fill="#FFFFFF" fill-rule="nonzero"></path>
            <polygon id="Path" fill="#FFFFFF" points="163 38.56 163 0 168.52 0 168.52 38.56"></polygon>
            <path d="M187,38.56 L187,0 L195.18,0 C198.36,0 200.77,0.87 202.41,2.6 C204.05,4.33 204.87,6.79 204.87,9.96 L204.87,27.99 C204.87,31.6 203.99,34.26 202.24,35.98 C200.49,37.7 197.97,38.55 194.69,38.55 L187,38.55 L187,38.56 Z M192.53,5.2 L192.53,33.36 L195.08,33.36 C196.63,33.36 197.73,32.97 198.38,32.2 C199.03,31.42 199.35,30.21 199.35,28.55 L199.35,9.98 C199.35,8.46 199.04,7.29 198.43,6.46 C197.82,5.63 196.7,5.21 195.07,5.21 L192.53,5.21 L192.53,5.2 Z" id="Shape" fill="#FFFFFF" fill-rule="nonzero"></path>
            <path d="M220.37,38.81 L220.37,35.99 L220.26,35.99 C219.54,37 218.81,37.78 218.07,38.32 C217.33,38.86 216.29,39.13 214.96,39.13 C214.31,39.13 213.65,39.03 212.98,38.83 C212.31,38.63 211.67,38.26 211.06,37.72 C210.45,37.21 209.95,36.48 209.57,35.53 C209.19,34.57 209,33.34 209,31.82 C209,30.27 209.13,28.91 209.38,27.73 C209.63,26.56 210.1,25.57 210.79,24.78 C211.44,24.02 212.32,23.45 213.44,23.07 C214.56,22.69 215.99,22.5 217.72,22.5 C217.9,22.5 218.1,22.5 218.32,22.5 C218.54,22.5 218.73,22.52 218.92,22.55 C219.1,22.59 219.32,22.6 219.57,22.6 C219.82,22.6 220.09,22.62 220.38,22.65 L220.38,19.78 C220.38,18.84 220.18,18.07 219.78,17.45 C219.38,16.84 218.66,16.53 217.61,16.53 C216.89,16.53 216.23,16.76 215.63,17.23 C215.03,17.7 214.65,18.39 214.47,19.29 L209.11,19.29 C209.25,16.84 210.08,14.85 211.6,13.33 C212.32,12.61 213.19,12.04 214.2,11.62 C215.21,11.21 216.35,11 217.61,11 C218.76,11 219.85,11.18 220.86,11.54 C221.87,11.9 222.76,12.44 223.51,13.16 C224.23,13.88 224.81,14.78 225.24,15.87 C225.67,16.95 225.89,18.22 225.89,19.66 L225.89,38.78 L220.37,38.78 L220.37,38.81 Z M220.37,27 C219.76,26.89 219.25,26.84 218.85,26.84 C217.66,26.84 216.64,27.12 215.79,27.68 C214.94,28.24 214.52,29.26 214.52,30.74 C214.52,31.79 214.77,32.64 215.28,33.29 C215.79,33.94 216.49,34.26 217.39,34.26 C218.33,34.26 219.06,33.95 219.58,33.34 C220.1,32.73 220.36,31.86 220.36,30.74 L220.36,27 L220.37,27 Z" id="Shape" fill="#FFFFFF" fill-rule="nonzero"></path>
            <path d="M232.76,11.34 L232.76,3 L238.28,3 L238.28,11.34 L241.69,11.34 L241.69,15.67 L238.28,15.67 L238.28,30.89 C238.28,31.54 238.34,32.05 238.47,32.41 C238.6,32.77 238.8,33.04 239.09,33.22 C239.38,33.4 239.73,33.51 240.15,33.54 C240.56,33.58 241.08,33.59 241.69,33.59 L241.69,38.79 L239.42,38.79 C238.16,38.79 237.1,38.59 236.25,38.19 C235.4,37.79 234.72,37.29 234.22,36.67 C233.71,36.06 233.34,35.36 233.11,34.59 C232.87,33.81 232.76,33.07 232.76,32.34 L232.76,15.66 L230,15.66 L230,11.33 L232.76,11.33 L232.76,11.34 Z" id="Path" fill="#FFFFFF"></path>
            <path d="M256.37,38.81 L256.37,35.99 L256.26,35.99 C255.54,37 254.81,37.78 254.07,38.32 C253.33,38.86 252.29,39.13 250.96,39.13 C250.31,39.13 249.65,39.03 248.98,38.83 C248.31,38.63 247.67,38.26 247.06,37.72 C246.45,37.21 245.95,36.48 245.57,35.53 C245.19,34.57 245,33.34 245,31.82 C245,30.27 245.13,28.91 245.38,27.73 C245.63,26.56 246.1,25.57 246.79,24.78 C247.44,24.02 248.32,23.45 249.44,23.07 C250.56,22.69 251.98,22.5 253.72,22.5 C253.9,22.5 254.1,22.5 254.32,22.5 C254.54,22.5 254.73,22.52 254.92,22.55 C255.1,22.59 255.32,22.6 255.57,22.6 C255.82,22.6 256.09,22.62 256.38,22.65 L256.38,19.78 C256.38,18.84 256.18,18.07 255.78,17.45 C255.38,16.84 254.66,16.53 253.61,16.53 C252.89,16.53 252.23,16.76 251.63,17.23 C251.03,17.7 250.65,18.39 250.47,19.29 L245.11,19.29 C245.25,16.84 246.08,14.85 247.6,13.33 C248.32,12.61 249.19,12.04 250.2,11.62 C251.21,11.21 252.35,11 253.61,11 C254.76,11 255.85,11.18 256.86,11.54 C257.87,11.9 258.76,12.44 259.51,13.16 C260.23,13.88 260.81,14.78 261.24,15.87 C261.67,16.95 261.89,18.22 261.89,19.66 L261.89,38.78 L256.37,38.78 L256.37,38.81 Z M256.37,27 C255.76,26.89 255.25,26.84 254.85,26.84 C253.66,26.84 252.64,27.12 251.79,27.68 C250.94,28.24 250.52,29.26 250.52,30.74 C250.52,31.79 250.77,32.64 251.28,33.29 C251.78,33.94 252.49,34.26 253.39,34.26 C254.33,34.26 255.06,33.95 255.58,33.34 C256.1,32.73 256.36,31.86 256.36,30.74 L256.36,27 L256.37,27 Z" id="Shape" fill="#FFFFFF" fill-rule="nonzero"></path>
            <path d="M293.95,11.44 L288.43,11.44 L288.43,10.19 C288.43,8.93 288.13,7.83 287.54,6.91 C286.94,5.99 285.94,5.53 284.53,5.53 C283.77,5.53 283.16,5.67 282.69,5.96 C282.22,6.25 281.84,6.61 281.55,7.04 C281.26,7.51 281.06,8.04 280.95,8.64 C280.84,9.24 280.79,9.86 280.79,10.51 C280.79,11.27 280.82,11.9 280.87,12.41 C280.92,12.92 281.06,13.37 281.28,13.76 C281.5,14.16 281.81,14.5 282.23,14.79 C282.64,15.08 283.21,15.37 283.94,15.66 L288.16,17.34 C289.39,17.81 290.38,18.36 291.14,18.99 C291.9,19.62 292.49,20.35 292.93,21.18 C293.33,22.05 293.6,23.03 293.74,24.13 C293.88,25.23 293.96,26.49 293.96,27.89 C293.96,29.51 293.8,31.02 293.47,32.41 C293.15,33.8 292.62,34.98 291.9,35.96 C291.14,36.97 290.15,37.77 288.92,38.34 C287.69,38.92 286.19,39.21 284.43,39.21 C283.09,39.21 281.85,38.97 280.69,38.51 C279.53,38.04 278.54,37.39 277.71,36.56 C276.88,35.73 276.22,34.76 275.73,33.66 C275.24,32.56 275,31.36 275,30.06 L275,28 L280.52,28 L280.52,29.73 C280.52,30.74 280.82,31.65 281.41,32.46 C282.01,33.27 283.01,33.68 284.42,33.68 C285.36,33.68 286.09,33.54 286.61,33.27 C287.13,33 287.54,32.61 287.83,32.11 C288.12,31.6 288.29,31 288.34,30.3 C288.39,29.6 288.42,28.81 288.42,27.94 C288.42,26.93 288.38,26.1 288.31,25.45 C288.24,24.8 288.09,24.28 287.88,23.88 C287.63,23.48 287.29,23.16 286.88,22.91 C286.46,22.66 285.91,22.39 285.23,22.1 L281.28,20.48 C278.9,19.51 277.3,18.21 276.49,16.61 C275.68,15 275.27,12.99 275.27,10.57 C275.27,9.13 275.47,7.75 275.87,6.45 C276.27,5.15 276.86,4.03 277.66,3.09 C278.42,2.15 279.38,1.4 280.56,0.84 C281.73,0.28 283.13,-1.0658141e-14 284.76,-1.0658141e-14 C286.13,-1.0658141e-14 287.39,0.25 288.52,0.76 C289.66,1.27 290.64,1.93 291.47,2.76 C293.13,4.49 293.96,6.48 293.96,8.72 L293.96,11.44 L293.95,11.44 Z" id="Path" fill="#FFFFFF"></path>
            <polygon id="Path" fill="#FFFFFF" points="301.39 38.56 301.39 5.2 295 5.2 295 0 313.3 0 313.3 5.2 306.91 5.2 306.91 38.56"></polygon>
            <path d="M312,38.56 L320.61,0 L325.21,0 L333.82,38.56 L328.3,38.56 L326.68,30.27 L319.15,30.27 L317.53,38.56 L312,38.56 Z M325.65,25.07 L322.94,11.1 L322.83,11.1 L320.12,25.07 L325.65,25.07 Z" id="Shape" fill="#FFFFFF" fill-rule="nonzero"></path>
            <path d="M336,9.43 C336,7.88 336.27,6.51 336.81,5.31 C337.35,4.12 338.07,3.13 338.98,2.33 C339.85,1.57 340.83,0.99 341.93,0.6 C343.03,0.2 344.14,1.42108547e-14 345.26,1.42108547e-14 C346.38,1.42108547e-14 347.49,0.2 348.59,0.6 C349.69,1 350.69,1.57 351.6,2.33 C352.47,3.12 353.17,4.12 353.71,5.31 C354.25,6.5 354.52,7.87 354.52,9.43 L354.52,11.38 L349,11.38 L349,9.43 C349,8.09 348.63,7.11 347.89,6.48 C347.15,5.85 346.27,5.53 345.26,5.53 C344.25,5.53 343.37,5.85 342.63,6.48 C341.89,7.11 341.52,8.1 341.52,9.43 L341.52,29.79 C341.52,31.13 341.89,32.11 342.63,32.74 C343.37,33.37 344.25,33.69 345.26,33.69 C346.27,33.69 347.15,33.37 347.89,32.74 C348.63,32.11 349,31.12 349,29.79 L349,22.53 L344.61,22.53 L344.61,17.66 L354.52,17.66 L354.52,29.79 C354.52,31.41 354.25,32.8 353.71,33.96 C353.17,35.12 352.46,36.07 351.6,36.83 C350.7,37.62 349.7,38.22 348.59,38.62 C347.49,39.02 346.38,39.22 345.26,39.22 C344.14,39.22 343.03,39.02 341.93,38.62 C340.83,38.22 339.85,37.63 338.98,36.83 C338.08,36.07 337.36,35.12 336.81,33.96 C336.27,32.81 336,31.41 336,29.79 L336,9.43 Z" id="Path" fill="#FFFFFF"></path>
            <polygon id="Path" fill="#FFFFFF" points="359 38.56 359 0 375.46 0 375.46 5.2 364.52 5.2 364.52 16.52 374.05 16.52 374.05 21.72 364.52 21.72 364.52 33.04 375.46 33.04 375.46 38.56"></polygon>
        </g>
    </g>
</svg>